<?xml version="1.0" standalone="no"?>
<!DOCTYPE svg PUBLIC "-//W3C//DTD SVG 20010904//EN"
 "http://www.w3.org/TR/2001/REC-SVG-20010904/DTD/svg10.dtd">
<svg version="1.0" xmlns="http://www.w3.org/2000/svg"
 width="816.000000pt" height="306.000000pt" viewBox="0 0 816.000000 306.000000"
 preserveAspectRatio="xMidYMid meet">

<g transform="translate(0.000000,306.000000) scale(0.100000,-0.100000)"
fill="#000000" stroke="none">
<path d="M4343 1978 c-12 -13 -49 -81 -83 -153 -63 -133 -108 -223 -139 -279
-60 -104 -50 -96 -116 -98 l-60 -2 53 -3 c28 -2 52 -8 52 -12 0 -4 -34 -44
-75 -88 -87 -94 -153 -133 -226 -133 -26 0 -59 4 -73 10 -27 10 -106 77 -106
90 0 5 17 14 38 20 60 20 124 50 169 81 34 24 53 29 105 31 l63 1 -59 6 -58 6
22 20 c31 27 70 113 70 153 0 42 -25 87 -57 101 -30 14 -113 14 -150 0 -88
-32 -165 -126 -184 -221 l-12 -58 -79 0 c-90 0 -255 -16 -310 -31 -21 -5 -38
-16 -38 -24 0 -21 58 -52 145 -76 66 -18 98 -21 194 -17 l114 4 36 -39 c71
-79 167 -98 264 -54 66 30 114 72 184 159 30 38 58 66 62 64 4 -3 53 -6 108
-8 l100 -2 -14 -34 c-20 -49 -10 -50 12 -2 l18 40 165 0 165 0 -7 -31 c-7 -37
15 -36 24 2 l6 24 542 3 c298 1 542 6 542 10 0 5 -241 6 -535 4 -305 -3 -535
-1 -535 4 0 5 14 44 31 87 31 75 32 77 68 79 l36 1 -32 4 c-18 2 -33 6 -33 8
0 2 13 30 30 61 16 32 27 60 23 63 -3 3 -7 2 -9 -4 -2 -5 -19 -35 -37 -65
l-33 -55 -80 1 c-43 1 -101 6 -129 10 -60 11 -127 4 -133 -13 -3 -10 21 -13
95 -13 74 0 104 -4 121 -16 21 -15 22 -18 8 -33 -11 -12 -26 -16 -45 -13 -23
3 -33 -1 -46 -21 -9 -14 -22 -28 -30 -31 -11 -4 -12 1 -3 25 14 39 3 48 -33
27 -28 -17 -29 -17 -19 2 17 32 -4 23 -30 -12 -24 -32 -36 -78 -20 -78 4 0 22
16 40 36 33 38 49 40 30 4 -15 -29 2 -49 25 -30 10 8 15 9 15 1 0 -20 33 -12
61 15 26 24 27 25 22 5 -8 -31 26 -41 45 -13 20 30 34 28 30 -5 l-3 -28 -162
-3 c-168 -3 -187 2 -137 34 17 11 21 19 14 24 -9 5 -9 13 -1 27 13 25 3 37
-17 20 -12 -9 -16 -9 -19 1 -8 23 -39 12 -78 -29 -42 -44 -56 -40 -31 10 18
35 19 41 7 41 -5 0 -16 -21 -25 -47 -19 -55 -8 -77 24 -48 18 16 20 16 20 2 0
-23 32 -21 64 4 20 16 25 17 20 4 -12 -30 -60 -45 -143 -45 -44 0 -82 4 -86
10 -3 5 5 27 19 48 13 22 66 122 116 222 90 179 126 240 142 240 13 0 9 -88
-8 -152 -18 -71 -13 -98 10 -46 26 61 40 173 24 204 -17 36 -30 39 -55 12z
m-476 -274 c51 -32 37 -134 -28 -208 l-41 -46 -130 0 -131 0 7 41 c26 164 210
285 323 213z m837 -157 c-29 -73 -30 -75 -36 -42 -4 16 3 36 18 57 31 41 31
52 1 15 l-22 -29 -28 32 -28 31 59 -2 59 -2 -23 -60z m-64 -16 c0 -19 -36 -58
-45 -49 -3 3 2 22 11 41 18 37 34 40 34 8z m-330 -6 c0 -8 -9 -19 -20 -25 -23
-12 -25 -7 -10 21 13 22 30 25 30 4z m238 -22 c-30 -30 -46 -26 -28 6 6 12 21
21 33 21 21 0 21 -1 -5 -27z m-1022 -118 c10 -55 10 -56 -16 -63 -14 -4 -68
-7 -120 -7 -100 1 -210 26 -259 61 -23 17 -24 18 -4 25 11 4 62 12 114 18 52
6 108 13 124 15 17 1 57 4 90 5 l61 1 10 -55z m239 39 c-25 -19 -152 -80 -183
-87 -26 -6 -42 22 -42 74 l0 29 123 0 c112 -1 120 -2 102 -16z"/>
<path d="M5140 1620 l-255 -6 263 -2 c169 -1 262 2 262 8 0 6 -3 9 -7 8 -5 -1
-123 -5 -263 -8z"/>
<path d="M4230 1589 c0 -5 5 -7 10 -4 6 3 10 8 10 11 0 2 -4 4 -10 4 -5 0 -10
-5 -10 -11z"/>
<path d="M4791 1528 c-40 -45 -57 -49 -36 -8 17 33 18 40 7 40 -10 0 -42 -65
-42 -85 0 -20 19 -19 42 2 17 15 18 15 18 0 0 -24 14 -21 51 10 30 26 31 26
20 4 -19 -35 -3 -39 24 -6 26 32 32 51 14 39 -7 -4 -7 1 1 16 21 39 1 35 -36
-8 -42 -49 -61 -55 -39 -11 24 46 14 49 -24 7z"/>
<path d="M4980 1545 c-24 -25 -24 -25 -32 -5 -9 24 -21 26 -39 3 -12 -15 -12
-16 4 -10 11 4 17 2 17 -8 0 -21 45 -65 67 -65 10 0 34 16 53 35 19 19 29 35
23 35 -6 0 -16 -7 -24 -16 -18 -22 -67 -45 -73 -35 -10 16 5 41 24 41 22 0 52
28 45 41 -11 17 -41 9 -65 -16z"/>
<path d="M5780 1440 c0 -5 5 -10 10 -10 6 0 10 5 10 10 0 6 -4 10 -10 10 -5 0
-10 -4 -10 -10z"/>
<path d="M4180 1395 c-25 -14 -51 -25 -57 -25 -17 0 -17 -20 0 -20 8 0 22 -9
33 -21 20 -23 25 -112 11 -204 l-7 -50 17 30 c21 38 20 198 -3 232 -19 30 -19
30 26 53 22 11 40 23 40 25 0 9 -14 4 -60 -20z"/>
<path d="M4252 1315 c-17 -37 -14 -45 4 -12 9 16 14 31 11 33 -2 2 -9 -7 -15
-21z"/>
<path d="M4226 1255 c-9 -26 -7 -32 5 -12 6 10 9 21 6 23 -2 3 -7 -2 -11 -11z"/>
<path d="M4206 1205 c-9 -26 -7 -32 5 -12 6 10 9 21 6 23 -2 3 -7 -2 -11 -11z"/>
</g>
</svg>
